<svg xmlns="http://www.w3.org/2000/svg" version="1.1" xmlns:xlink="http://www.w3.org/1999/xlink" width="24" height="24" x="0" y="0" viewBox="0 0 64 64" style="enable-background:new 0 0 512 512" xml:space="preserve" class=""><g><g data-name="Fill Outline"><path fill="#48cae4" d="M22 7h39v16H22z" opacity="1" data-original="#48cae4"></path><path fill="#00b4d8" d="M61 15v8H22V7h7.06A8.993 8.993 0 0 0 38 15z" opacity="1" data-original="#00b4d8" class=""></path><path fill="#ef5350" d="M11 31h36v16H11z" opacity="1" data-original="#ef5350" class=""></path><path fill="#e9f1f2" d="M27 18v-6h-2.46a10.468 10.468 0 0 0-.68-1.62l1.75-1.74-4.25-4.25-1.74 1.75A10.468 10.468 0 0 0 18 5.46V3h-6v2.46a10.468 10.468 0 0 0-1.62.68L8.64 4.39 4.39 8.64l1.75 1.74A10.468 10.468 0 0 0 5.46 12H3v6h2.46a10.468 10.468 0 0 0 .68 1.62l-1.75 1.74 4.25 4.25 1.74-1.75a10.468 10.468 0 0 0 1.62.68V27h6v-2.46a10.468 10.468 0 0 0 1.62-.68l1.74 1.75 4.25-4.25-1.75-1.74a10.468 10.468 0 0 0 .68-1.62zm-12 2a5 5 0 1 1 5-5 5 5 0 0 1-5 5z" opacity="1" data-original="#e9f1f2" class=""></path><path fill="#d0d8da" d="M20 23A13 13 0 0 1 7.98 5.05L4.39 8.64l1.75 1.74A10.468 10.468 0 0 0 5.46 12H3v6h2.46a10.468 10.468 0 0 0 .68 1.62l-1.75 1.74 4.25 4.25 1.74-1.75a10.468 10.468 0 0 0 1.62.68V27h6v-2.46a10.468 10.468 0 0 0 1.62-.68l1.74 1.75 3.59-3.59A12.929 12.929 0 0 1 20 23z" opacity="1" data-original="#d0d8da" class=""></path><path fill="#d0d8da" d="M15 8a7 7 0 1 0 7 7 6.995 6.995 0 0 0-7-7zm0 12a5 5 0 1 1 5-5 5 5 0 0 1-5 5z" opacity="1" data-original="#d0d8da" class=""></path><path fill="#93999a" d="M8 15.01A7 7 0 0 0 14.99 22 13.072 13.072 0 0 1 8 15.01z" opacity="1" data-original="#93999a"></path><path fill="#e53935" d="M47 39v8H11V31h7.06A8.993 8.993 0 0 0 27 39z" opacity="1" data-original="#e53935" class=""></path><path fill="#ffea00" d="M24 45h36v16H24z" opacity="1" data-original="#ffea00"></path><path fill="#ffd000" d="M60 53v8H24V45h7.06A8.993 8.993 0 0 0 40 53z" opacity="1" data-original="#ffd000" class=""></path><g fill="#323232" data-name="Outline copy"><path d="M61 6h-9a1 1 0 0 0 0 2h8v14H44a1 1 0 0 0 0 2h17a1 1 0 0 0 1-1V7a1 1 0 0 0-1-1zM20 46h-8V32h34v9a1 1 0 0 0 2 0V31a1 1 0 0 0-1-1H11a1 1 0 0 0-1 1v16a1 1 0 0 0 1 1h9a1 1 0 0 0 0-2z" fill="#323232" opacity="1" data-original="#323232" class=""></path><path d="M60 44H24a1 1 0 0 0-1 1v16a1 1 0 0 0 1 1h10a1 1 0 0 0 0-2h-9V46h34v14H38a1 1 0 0 0 0 2h22a1 1 0 0 0 1-1V45a1 1 0 0 0-1-1zM7.023 19.157a8.934 8.934 0 0 1-.61-1.457 1 1 0 0 0-.954-.7H3a1 1 0 0 0 0 2h1.753c.056.139.114.277.175.416l-1.241 1.241a1 1 0 0 0 0 1.414l4.242 4.242a1 1 0 0 0 1.414 0l1.241-1.241c.139.061.277.119.416.175V27a1 1 0 0 0 1 1h6a1 1 0 0 0 1-1v-1.753c.139-.056.277-.114.416-.175l1.241 1.241a1 1 0 0 0 1.414 0L24.384 24H40a1 1 0 0 0 0-2H26.36a.99.99 0 0 0-.047-1.343l-1.241-1.241c.061-.139.119-.277.175-.416H27a1 1 0 0 0 1-1v-6a1 1 0 0 0-1-1h-1.753a14.732 14.732 0 0 0-.175-.416l1.241-1.241A.99.99 0 0 0 26.36 8H48a1 1 0 0 0 0-2H24.384l-2.313-2.313a1 1 0 0 0-1.414 0l-1.241 1.241A14.732 14.732 0 0 0 19 4.753V3a1 1 0 0 0-1-1h-6a1 1 0 0 0-1 1v1.753c-.139.056-.277.114-.416.175L9.343 3.687a1 1 0 0 0-1.414 0L3.687 7.929a1 1 0 0 0 0 1.414l1.241 1.241c-.061.139-.119.277-.175.416H3a1 1 0 0 0-1 1v2a1 1 0 0 0 2 0v-1h1.459a1 1 0 0 0 .954-.7 8.934 8.934 0 0 1 .61-1.457 1 1 0 0 0-.179-1.171L5.808 8.636l2.828-2.828 1.036 1.036a1 1 0 0 0 1.171.179 8.934 8.934 0 0 1 1.457-.61 1 1 0 0 0 .7-.954V4h4v1.459a1 1 0 0 0 .7.954 8.934 8.934 0 0 1 1.457.61 1 1 0 0 0 1.171-.179l1.036-1.036 2.828 2.828-1.036 1.036a1 1 0 0 0-.179 1.171 8.934 8.934 0 0 1 .61 1.457 1 1 0 0 0 .954.7H26v4h-1.459a1 1 0 0 0-.954.7 8.934 8.934 0 0 1-.61 1.457 1 1 0 0 0 .179 1.171l1.036 1.036-2.828 2.828-1.036-1.036a1 1 0 0 0-1.171-.179 8.934 8.934 0 0 1-1.457.61 1 1 0 0 0-.7.954V26h-4v-1.459a1 1 0 0 0-.7-.954 8.934 8.934 0 0 1-1.457-.61 1 1 0 0 0-1.171.179l-1.036 1.036-2.828-2.828 1.036-1.036a1 1 0 0 0 .179-1.171z" fill="#323232" opacity="1" data-original="#323232" class=""></path><path d="M19.282 17.75a1 1 0 0 0 1.3-.567 6.034 6.034 0 1 0-3.395 3.395 1 1 0 1 0-.729-1.862 4.033 4.033 0 1 1 2.262-2.262 1 1 0 0 0 .562 1.296zM32 18a1 1 0 0 0 0 2h4a1 1 0 0 0 0-2h-1v-7a1 1 0 0 0-1.707-.707l-2 2a1 1 0 0 0 1.414 1.414l.293-.293V18zM56 10H44a1 1 0 0 0 0 2h12a1 1 0 0 0 0-2zM56 14H39a1 1 0 0 0 0 2h17a1 1 0 0 0 0-2zM56 18H41a1 1 0 0 0 0 2h15a1 1 0 0 0 0-2zM53.707 33.293a1 1 0 0 0-1.414 0l-2 2a1 1 0 0 0 0 1.414l2 2a1 1 0 0 0 1.414-1.414L53.414 37H57a1 1 0 0 0 1-1v-9a1 1 0 0 0-2 0v8h-2.586l.293-.293a1 1 0 0 0 0-1.414zM13.707 51.293a1 1 0 0 0-1.414 1.414l.293.293H4V39h3a1 1 0 0 0 0-2H3a1 1 0 0 0-1 1v16a1 1 0 0 0 1 1h9.586l-.293.293a1 1 0 1 0 1.414 1.414l2-2a1 1 0 0 0 0-1.414zM21 37a3 3 0 0 0-6 0 1 1 0 0 0 2 0 1 1 0 0 1 1.967-.254l-3.8 5.7A1 1 0 0 0 16 44h4a1 1 0 0 0 0-2h-2.131l2.963-4.445A1.006 1.006 0 0 0 21 37zM42 35H30a1 1 0 0 0 0 2h12a1 1 0 0 0 0-2zM42 39H25a1 1 0 0 0 0 2h17a1 1 0 0 0 0-2zM32 48a3 3 0 0 0-3 3 1 1 0 0 0 2 0 1 1 0 1 1 1 1 1 1 0 0 0 0 2 1 1 0 1 1-1 1 1 1 0 0 0-2 0 3 3 0 1 0 5.234-2A3 3 0 0 0 32 48zM55 50a1 1 0 0 0 0-2H43a1 1 0 0 0 0 2zM38 53a1 1 0 0 0 1 1h16a1 1 0 0 0 0-2H39a1 1 0 0 0-1 1zM39 58h16a1 1 0 0 0 0-2H39a1 1 0 0 0 0 2z" fill="#323232" opacity="1" data-original="#323232" class=""></path></g></g></g></svg>